Rust and Bone (2012)

Plot: Put in charge of his young son, Ali leaves Belgium for Antibes to live with his sister and her husband as a family. Ali's bond with Stephanie, a killer whale trainer, grows deeper after Stephanie suffers a horrible accident. 

Cast:
Marion Cotillard ... Stéphanie 
Matthias Schoenaerts ... Alain van Versch 
Armand Verdure ... Sam 
Céline Sallette ... Louise 
Corinne Masiero ... Anna 
Bouli Lanners ... Martial 
Jean-Michel Correia ... Richard 
Mourad Frarema ... Foued 
Yannick Choirat ... Simon 

Details
Original title: De Rouille et D'os
Genre: Drama | Romance
Runtime: 120 min
Country: France | Belgium
Audio: French
Subtitles: English | French (External)
Chapters: Included
Rated: R

Directed by
Jacques Audiard

Writing credits
Jacques Audiard, 
Thomas Bidegain, based on the novel by Craig Davidson

IMDb: http://www.imdb.com/title/tt2053425/

Awards & Nominations:

Cannes Film Festival
2012
Nominated
Palm d'Or

London Film Festival
2012
Won
Best Film

Valladolid International Film Festival
2012
Won
Best Actor - Matthias Schoenaerts 
Best Director - Jacques Audiard 
Best Screenplay

Cabourg Romantic Film Festival
2012
Won
Golden Swann - Jacques Audiard

Hollywood Film Festival
2012
Won
Actress of the Year - Marion Cotillard 

British Independent Film Awards
2012
Nominated
Best International Independent Film

London Critics Circle Film Awards
2013
Nominated
Actress of the Year - Marion Cotillard 
Foreign Language Film of the Year
Technical Achievement of the Year - Alexandre Desplat (music) 
 
Critics Choice Awards
2013
Nominated
Best Actress - Marion Cotillard
Best Foreign Language Film

Independent Spirit Awards
2013
Nominated
Best International Film

Australian Film Institute 
2013
Nominated
Best Actress - Marion Cotillard

Golden Globes
2013
Nominated
Best Actress Drama - Marion Cotillard 
Best Foreign Film

SAG Awards
2013
Nominated
Best Actress - Marion Cotillard

BAFTA
2013
Nominated
Best Actress - Marion Cotillard
Best Film Not in the English Language

César Awards
2013
Nominated
Best Film
Best Director
Best Actress - Marion Cotillard
Best Male Newcomer - Matthias Schoenaerts
Best Adapted Screenplay
Best Origional Score
Best Cinematography
Best Sound
Best Editing

--------------------------------------------------------------------------------

MediaInfo:

General
Format                                   : Matroska
Format version                           : Version 2
File size                                : 2.60 GiB
Duration                                 : 2h 2mn
Overall bit rate                         : 3 051 Kbps
Encoded date                             : UTC 2012-11-22 22:45:56
Writing application                      : mkvmerge v4.0.0 ('The Stars were mine') built on Jun 6 2010 16:18:42
Writing library                          : libebml v1.0.0 + libmatroska v1.0.0

Video
ID                                       : 1
Format                                   : AVC
Format/Info                              : Advanced Video Codec
Format profile                           : High@L4.1
Format settings, CABAC                   : Yes
Format settings, ReFrames                : 9 frames
Codec ID                                 : V_MPEG4/ISO/AVC
Duration                                 : 2h 2mn
Bit rate                                 : 2 600 Kbps
Width                                    : 1 280 pixels
Height                                   : 534 pixels
Display aspect ratio                     : 2.40:1
Frame rate mode                          : Constant
Frame rate                               : 24.000 fps
Color space                              : YUV
Chroma subsampling                       : 4:2:0
Bit depth                                : 8 bits
Scan type                                : Progressive
Bits/(Pixel*Frame)                       : 0.158
Stream size                              : 2.17 GiB (83%)
Writing library                          : x264 core 129 r2230 1cffe9f
Language                                 : French
Default                                  : Yes
Forced                                   : No

Audio
ID                                       : 2
Format                                   : AC-3
Format/Info                              : Audio Coding 3
Mode extension                           : CM (complete main)
Format settings, Endianness              : Big
Codec ID                                 : A_AC3
Duration                                 : 2h 2mn
Bit rate mode                            : Constant
Bit rate                                 : 448 Kbps
Channel(s)                               : 6 channels
Channel positions                        : Front: L C R, Side: L R, LFE
Sampling rate                            : 48.0 KHz
Bit depth                                : 16 bits
Compression mode                         : Lossy
Stream size                              : 392 MiB (15%)
Language                                 : French
Default                                  : Yes
Forced                                   : No

Menu
00:00:00.000                             : en:Chapter 1
00:11:16.667                             : en:Chapter 2
00:18:44.292                             : en:Chapter 3
00:30:12.250                             : en:Chapter 4
00:39:19.792                             : en:Chapter 5
00:49:35.292                             : en:Chapter 6
00:59:25.292                             : en:Chapter 7
01:11:04.208                             : en:Chapter 8
01:21:56.500                             : en:Chapter 9
01:31:13.625                             : en:Chapter 10
01:41:02.708                             : en:Chapter 11
01:49:31.500                             : en:Chapter 12

--------------------------------------------------------------------------------

Screenshots: 
http://i.imgur.com/FHCij.jpg
 
http://i.imgur.com/98ad0.jpg
 
http://i.imgur.com/gOoA1.jpg
 
http://i.imgur.com/DeXxW.jpg
 
http://i.imgur.com/FNscF.jpg
 
http://i.imgur.com/ztBNR.jpg
 
http://i.imgur.com/8WCDS.jpg
 
http://i.imgur.com/zmiNE.jpg
 
http://i.imgur.com/n08RW.jpg
 
http://i.imgur.com/OMSSx.jpg
 
http://i.imgur.com/yFq0e.jpg
 
http://i.imgur.com/OBGau.jpg
 
http://i.imgur.com/QTBUF.jpg
 
http://i.imgur.com/gXSZ5.jpg
 
http://i.imgur.com/MMiwg.jpg